<svg width="442" height="358" viewBox="0 0 442 358" fill="none" xmlns="http://www.w3.org/2000/svg">
<path opacity="0.1" d="M53.0052 41.7354C57.0425 17.6465 77.8926 0 102.317 0H392C419.614 0 442 22.3858 442 50V308C442 335.614 419.614 358 392 358H59.0772C28.1619 358 4.65495 330.225 9.76502 299.735L53.0052 41.7354Z" fill="#2D9CDB"/>
<ellipse cx="382.39" cy="306.031" rx="30.9248" ry="18.2737" transform="rotate(20.7184 382.39 306.031)" stroke="white" stroke-width="1.5"/>
<path d="M106.374 248.276C48.718 259.956 35.0131 199.715 74.6551 129.904C164.588 -2.57253 305.741 36.1777 327.196 62.2358C348.651 88.2939 331.223 119.702 248.143 133.717C165.063 147.732 178.443 233.678 106.374 248.276Z" stroke="white" stroke-width="1.5"/>
</svg>
