<svg width="443" height="360" viewBox="0 0 443 360" fill="none" xmlns="http://www.w3.org/2000/svg">
<path opacity="0.1" d="M53.2904 43.7354C57.3276 19.6465 78.1778 2 102.603 2H392.285C419.899 2 442.285 24.3858 442.285 52V310C442.285 337.614 419.899 360 392.285 360H59.3624C28.4471 360 4.94011 332.225 10.0502 301.735L53.2904 43.7354Z" fill="#68C9BA"/>
<path d="M402.877 116.023C426.58 142.794 399.562 167.788 351.254 167.646C255.079 159.668 231.942 74.2183 238.875 55.2675C245.808 36.3167 267.418 36.1667 300.115 75.5748C332.813 114.983 373.248 82.5594 402.877 116.023Z" stroke="white" stroke-width="1.5"/>
<ellipse cx="305.634" cy="61.1502" rx="16.8481" ry="9.95569" transform="rotate(20.7184 305.634 61.1502)" stroke="white" stroke-width="1.5"/>
</svg>
