<svg width="178" height="50" viewBox="0 0 178 50" fill="none" xmlns="http://www.w3.org/2000/svg">
<circle opacity="0.1" cx="89" cy="25" r="25" fill="#212353"/>
<path fill-rule="evenodd" clip-rule="evenodd" d="M88.9096 21.6591L88.8699 21.0075C88.7511 19.3187 89.7939 17.7761 91.4438 17.1777C92.051 16.9649 93.0805 16.9383 93.7537 17.1245C94.0177 17.2043 94.5193 17.4702 94.8756 17.7096L95.5224 18.1485L96.2352 17.9224C96.6312 17.8027 97.1592 17.6032 97.3967 17.4702C97.6211 17.3506 97.8191 17.284 97.8191 17.324C97.8191 17.55 97.3307 18.3213 96.9216 18.7468C96.3672 19.3453 96.5256 19.3985 97.6475 18.9995C98.3207 18.7734 98.3338 18.7734 98.2019 19.0261C98.1226 19.1591 97.7135 19.6245 97.2779 20.05C96.5387 20.7815 96.4992 20.8612 96.4992 21.4729C96.4992 22.4171 96.0504 24.3852 95.6016 25.4623C94.77 27.4836 92.9881 29.5714 91.2062 30.6219C88.6984 32.0981 85.3589 32.4704 82.5475 31.606C81.6103 31.3134 80 30.5687 80 30.4358C80 30.3959 80.4883 30.3427 81.0824 30.3294C82.3231 30.3028 83.5638 29.957 84.6197 29.3453L85.3326 28.9198L84.5142 28.6406C83.3526 28.2416 82.3099 27.324 82.0459 26.4597C81.9667 26.1804 81.9931 26.1671 82.7323 26.1671L83.4978 26.1538L82.8511 25.848C82.0855 25.4623 81.3859 24.8107 81.0427 24.1458C80.7919 23.6671 80.4752 22.457 80.5676 22.3639C80.5939 22.324 80.8712 22.4038 81.188 22.5102C82.0987 22.8426 82.2175 22.7628 81.6895 22.2043C80.6995 21.1937 80.396 19.691 80.8712 18.2681L81.0956 17.6298L81.9667 18.4942C83.7486 20.2362 85.8473 21.2735 88.2496 21.5793L88.9096 21.6591Z" fill="white"/>
<circle opacity="0.1" cx="153" cy="25" r="25" fill="#212353"/>
<path d="M153.002 20.8978C150.732 20.8978 148.901 22.7293 148.901 25C148.901 27.2707 150.732 29.1022 153.002 29.1022C155.272 29.1022 157.103 27.2707 157.103 25C157.103 22.7293 155.272 20.8978 153.002 20.8978ZM153.002 27.667C151.535 27.667 150.335 26.4709 150.335 25C150.335 23.5291 151.531 22.333 153.002 22.333C154.472 22.333 155.668 23.5291 155.668 25C155.668 26.4709 154.469 27.667 153.002 27.667ZM158.227 20.73C158.227 21.262 157.799 21.6868 157.271 21.6868C156.739 21.6868 156.314 21.2584 156.314 20.73C156.314 20.2016 156.743 19.7732 157.271 19.7732C157.799 19.7732 158.227 20.2016 158.227 20.73ZM160.944 21.7011C160.883 20.4194 160.59 19.2841 159.652 18.3487C158.716 17.4133 157.581 17.1205 156.3 17.0562C154.979 16.9813 151.021 16.9813 149.7 17.0562C148.422 17.1169 147.287 17.4097 146.348 18.3451C145.41 19.2805 145.12 20.4158 145.056 21.6975C144.981 23.0185 144.981 26.9779 145.056 28.2989C145.117 29.5806 145.41 30.7159 146.348 31.6513C147.287 32.5867 148.419 32.8795 149.7 32.9438C151.021 33.0187 154.979 33.0187 156.3 32.9438C157.581 32.8831 158.716 32.5903 159.652 31.6513C160.587 30.7159 160.88 29.5806 160.944 28.2989C161.019 26.9779 161.019 23.0221 160.944 21.7011ZM159.238 29.7163C158.959 30.416 158.42 30.9551 157.717 31.2372C156.664 31.6549 154.165 31.5585 153.002 31.5585C151.838 31.5585 149.336 31.6513 148.287 31.2372C147.587 30.9587 147.048 30.4196 146.766 29.7163C146.348 28.6631 146.445 26.1639 146.445 25C146.445 23.8361 146.352 21.3334 146.766 20.2837C147.044 19.584 147.583 19.0449 148.287 18.7628C149.34 18.3451 151.838 18.4415 153.002 18.4415C154.165 18.4415 156.668 18.3487 157.717 18.7628C158.417 19.0413 158.956 19.5804 159.238 20.2837C159.655 21.3369 159.559 23.8361 159.559 25C159.559 26.1639 159.655 28.6666 159.238 29.7163Z" fill="white"/>
<circle opacity="0.1" cx="25" cy="25" r="25" fill="#212353"/>
<path d="M26.37 35.4883V25.2429H29.204L29.5796 21.7123H26.37L26.3748 19.9452C26.3748 19.0244 26.4625 18.531 27.7878 18.531H29.5595V15H26.7251C23.3205 15 22.1222 16.7127 22.1222 19.593V21.7127H20V25.2433H22.1222V35.4883H26.37Z" fill="white"/>
</svg>
